<svg xmlns="http://www.w3.org/2000/svg" viewBox="0 0 512.001 512.001"><path d="M112.643 309.137H92.946a3.99 3.99 0 01-3.685-2.461l-6.681-16.109a3.99 3.99 0 00-3.685-2.461H36.816a3.988 3.988 0 00-3.732 2.58l-5.994 15.871a3.989 3.989 0 01-3.732 2.58H3.994c-2.827 0-4.757-2.859-3.7-5.482l39.611-98.238a3.99 3.99 0 013.7-2.498h25.394a3.99 3.99 0 013.646 2.37l43.644 98.238c1.172 2.639-.759 5.61-3.646 5.61zm-59.559-71.412l-9.98 26.448c-.985 2.609.944 5.398 3.733 5.398h20.96c2.845 0 4.775-2.892 3.685-5.519l-10.979-26.448c-1.387-3.338-6.143-3.26-7.419.121zm171.053-34.805h17.238a3.99 3.99 0 013.99 3.99v98.238a3.99 3.99 0 01-3.99 3.99h-18.499a3.99 3.99 0 01-3.99-3.99v-51.599c0-3.701-4.602-5.407-7.015-2.601l-20.447 23.779a3.992 3.992 0 01-3.025 1.389h-.387a3.987 3.987 0 01-3.025-1.389l-20.447-23.779c-2.413-2.806-7.015-1.1-7.015 2.601v51.599a3.99 3.99 0 01-3.99 3.99h-18.497a3.99 3.99 0 01-3.99-3.99V206.91a3.99 3.99 0 013.99-3.99h17.236a3.99 3.99 0 013.017 1.379l29.898 34.539a3.99 3.99 0 006.033 0l29.898-34.539a3.99 3.99 0 013.017-1.379zm88.318 0c38.777 0 58.711 24.137 58.711 53.261 0 30.525-19.309 52.956-61.672 52.956h-39.929a3.99 3.99 0 01-3.99-3.99V206.91a3.99 3.99 0 013.99-3.99h42.89zm-20.402 82.76a3.99 3.99 0 003.99 3.99h13.296c26.63 0 34.575-18.067 34.575-33.644 0-18.223-9.812-33.637-34.886-33.637h-12.984a3.99 3.99 0 00-3.99 3.99v59.301h-.001z" fill="#c2c2c4"/><path d="M474.625 228.104h-49.129a3.986 3.986 0 01-2.821-1.169l-25.407-25.41c-2.513-2.513-.733-6.811 2.821-6.811h107.922a3.99 3.99 0 013.99 3.99v107.925c0 3.555-4.298 5.335-6.811 2.821l-25.407-25.409a3.99 3.99 0 01-1.168-2.821v-49.125a3.991 3.991 0 00-3.99-3.991zm-50.821 50.82v-34.496c0-3.554-4.297-5.334-6.811-2.821L390.6 268a3.99 3.99 0 00-1.169 2.821v42.475a3.99 3.99 0 003.99 3.99h42.465c1.058 0 2.073-.42 2.821-1.169l26.393-26.393c2.513-2.513.733-6.811-2.821-6.811h-34.486a3.988 3.988 0 01-3.989-3.989z" fill="#72be4f"/><path d="M17.293 303.656l39.611-98.238a3.99 3.99 0 013.7-2.498h-17a3.99 3.99 0 00-3.7 2.498L.293 303.656c-1.057 2.622.873 5.482 3.7 5.482h16.999c-2.826-.001-4.757-2.86-3.699-5.482zm130.755 1.492V206.91a3.99 3.99 0 013.99-3.99h-16.999a3.99 3.99 0 00-3.99 3.99v98.238a3.99 3.99 0 003.99 3.99h16.999a3.99 3.99 0 01-3.99-3.99zm134.526 0V206.91a3.99 3.99 0 013.99-3.99h-16.999a3.99 3.99 0 00-3.99 3.99v98.238a3.99 3.99 0 003.99 3.99h16.999a3.99 3.99 0 01-3.99-3.99z" fill="#b0b0b5"/><path d="M414.266 201.525c-2.513-2.513-.733-6.811 2.821-6.811h-16.999c-3.554 0-5.334 4.297-2.821 6.811l25.407 25.41a3.99 3.99 0 002.821 1.169h16.999a3.99 3.99 0 01-2.821-1.169l-25.407-25.41zm81.347 30.569a3.99 3.99 0 00-3.989-3.99h-16.999a3.99 3.99 0 013.989 3.99v49.125a3.99 3.99 0 001.168 2.821l15.831 15.832v-67.778zm-89.182 81.203v-37.324c0-1.058.42-2.073 1.169-2.821l16.205-16.205v-12.518c0-3.554-4.297-5.334-6.811-2.821L390.6 268a3.99 3.99 0 00-1.169 2.821v42.476a3.99 3.99 0 003.99 3.99h16.999a3.99 3.99 0 01-3.989-3.99z" fill="#66af3f"/></svg>