<svg xmlns="http://www.w3.org/2000/svg" viewBox="0 0 512 512"><path d="M243.206 388.211C-20.446 412.532-1.738 260.667 55.922 197.777V184.06C13.49 221.273-9.505 268.362 3.741 323.984c32.202 135.787 298.001 115.947 421.48 48.123v-38.79c-45.151 26.902-119.815 49.123-182.015 54.894zm266.525-205.08C485.732 65.967 258.24 58.539 111.597 147.804v9.861c146.476-75.307 354.247-74.849 373.163 33.082 6.347 35.702-13.763 72.9-49.692 94.316v28.006c43.22-15.854 87.552-67.13 74.663-129.938z" fill="#579add"/><path d="M424.573 333.694v20.836C298.337 423.868 12.499 446.358.273 285.098c-.805 12.451.26 25.416 3.468 38.888 32.202 135.787 298.001 115.947 421.48 48.123v-38.79c-.212.124-.435.249-.648.375zm10.495-48.632v28.006c4.327-1.587 8.665-3.536 12.957-5.809v-11.923c0-3.923 1.952-7.592 5.214-9.771 32.643-21.802 50.516-57.092 44.482-91.032-7.066-40.319-40.488-65.639-87.221-77.617 39.89 13.148 67.866 37.348 74.26 73.831 6.347 35.702-13.763 72.9-49.692 94.315z" fill="#4987ce"/><path d="M415.775 166.07h-23.996c-.699 0-1.265.566-1.265 1.265v116.88c0 13.513 6.375 25.307 25.116 27.655a1.266 1.266 0 001.411-1.26V167.335c0-.699-.567-1.265-1.266-1.265zM99.916 209.207H75.871c-.699 0-1.265.566-1.265 1.265l-.014 75.924c0 13.562 6.396 25.344 25.181 27.658a1.266 1.266 0 001.408-1.26V210.472c0-.699-.566-1.265-1.265-1.265zm-25.31-38.277v22.615c0 .699.566 1.265 1.265 1.265h23.962c.699 0 1.265-.566 1.265-1.265V170.93c0-.699-.566-1.265-1.265-1.265H75.871a1.264 1.264 0 00-1.265 1.265zm185.441 142.055c-21.472 0-30.559-14.923-30.559-29.624V182.137c0-.699.566-1.265 1.265-1.265h23.767c.699 0 1.265.566 1.265 1.265v25.804c0 .699.566 1.265 1.265 1.265h17.272c.699 0 1.265.566 1.265 1.265v18.71c0 .699-.566 1.265-1.265 1.265H257.05c-.699 0-1.265.566-1.265 1.265v50.024c0 5.993 2.845 9.333 9.094 9.333h9.443c.699 0 1.265.566 1.265 1.265v19.385c0 .699-.566 1.265-1.265 1.265h-14.275m48.387-43.663c0 13.458 8.416 23.346 23.305 23.346 11.159 0 16.905-2.96 23.278-9.039a1.27 1.27 0 011.753-.012l14.415 13.731c.521.496.526 1.335.007 1.834-10.137 9.741-20.968 15.624-39.648 15.624-25.166 0-49.276-13.736-49.276-53.776 0-34.232 21.069-53.581 48.693-53.581 28.082 0 44.221 22.652 44.221 52.387v8.22c0 .699-.566 1.265-1.265 1.265l-65.483.001m2.528-29.235c-1.534 3.376-2.194 6.081-2.454 9.942a1.273 1.273 0 001.264 1.363h37.844c.729 0 1.319-.616 1.263-1.343-2.177-28.113-31.201-24.297-37.917-9.962zm-138.36-9.638c7.711 0 10.916 3.812 10.916 10v71.426c0 .699.566 1.265 1.265 1.265h23.771c.699 0 1.265-.566 1.265-1.265v-71.579c0-14.761-7.864-31.059-30.96-31.059l-53.065-.027c-.699 0-1.266.566-1.266 1.265v101.4c0 .699.566 1.265 1.265 1.265h23.781c.699 0 1.265-.566 1.265-1.265v-80.161c0-.699.566-1.265 1.265-1.265h20.498z" fill="#579add"/><path d="M403.907 284.215v-116.88c0-.699.566-1.265 1.265-1.265h-13.393c-.699 0-1.265.566-1.265 1.265v116.88c0 13.513 6.375 25.307 25.116 27.655a1.266 1.266 0 001.411-1.26v-2.234c-9.582-4.959-13.134-14.08-13.134-24.161zm-315.922 2.181l.014-75.924c0-.698.566-1.265 1.265-1.265H75.871c-.699 0-1.265.566-1.265 1.265l-.014 75.924c0 13.562 6.397 25.344 25.181 27.658a1.266 1.266 0 001.409-1.26v-2.198c-9.628-4.942-13.197-14.074-13.197-24.2zm.014-92.852v-22.615c0-.699.566-1.265 1.265-1.265H75.871c-.699 0-1.265.566-1.265 1.265v22.615c0 .699.566 1.265 1.265 1.265h13.393a1.265 1.265 0 01-1.265-1.265zm154.883 89.817V182.138c0-.699.566-1.265 1.265-1.265h-13.393c-.699 0-1.265.566-1.265 1.265v101.224c0 14.701 9.086 29.624 30.559 29.624h13.393c-21.473-.001-30.559-14.924-30.559-29.625zm52.78-22.332c0-31.296 17.613-50.141 41.742-53.146a48.527 48.527 0 00-6.442-.435c-27.624 0-48.692 19.349-48.692 53.581 0 40.04 24.11 53.776 49.276 53.776 2.478 0 4.81-.111 7.028-.313-22.717-2.216-42.912-16.819-42.912-53.463zM137.92 311.873v-101.4c0-.687.55-1.24 1.232-1.258l-13.359-.007c-.699 0-1.266.566-1.266 1.265v101.4c0 .699.566 1.265 1.265 1.265h13.393a1.266 1.266 0 01-1.265-1.265z" fill="#4987ce"/></svg>