<svg xmlns="http://www.w3.org/2000/svg" viewBox="0 0 511.999 511.999"><path d="M203.607 52.591v26.328c0 2.99 2.494 5.388 5.48 5.242 60.058-2.931 118.206 30.332 155.368 74.074a5.25 5.25 0 01-.048 6.875c-37.336 42.409-97.329 89.001-154.909 81.97-3.133-.383-5.892 2.049-5.892 5.205v12.187c0 2.703 2.048 4.986 4.74 5.229 3.608.326 7.311.508 11.126.508 67.211 0 116.219-33.591 163.361-73.934a5.268 5.268 0 016.291-.414c9.016 5.82 28.119 15.428 38.419 22.147 3.054 1.992 3.245 6.408.33 8.599-50.153 37.707-160.233 68.582-218.686 64.469-3.022-.213-5.58 2.21-5.58 5.24v21.341c0 2.9 2.351 5.251 5.251 5.251h250.57c2.9 0 5.251-2.351 5.251-5.251V52.591c0-2.9-2.351-5.251-5.251-5.251h-250.57a5.25 5.25 0 00-5.251 5.251z" fill="#72be4f"/><path d="M215.217 464.657h23.302a1.906 1.906 0 001.906-1.906v-92.194a1.906 1.906 0 00-1.906-1.906h-23.314a1.906 1.906 0 00-1.906 1.906l.012 92.194a1.907 1.907 0 001.906 1.906zM48.693 368.518H1.906A1.906 1.906 0 000 370.424v92.328c0 1.053.853 1.906 1.906 1.906H25.45a1.906 1.906 0 001.906-1.906v-69.186c0-1.053.854-1.906 1.906-1.906l19.291.006c18.476 0 21.437 12.22 21.437 30.777v40.309c0 1.053.853 1.906 1.906 1.906h22.695a1.906 1.906 0 001.906-1.906v-51.21c0-37.911-24.162-43.024-47.804-43.024zm101.089 69.925l-19.489-68.402a1.906 1.906 0 00-1.832-1.384l-25.212-.005a1.906 1.906 0 00-1.814 2.491l29.731 92.194a1.907 1.907 0 001.814 1.321h36.308c.826 0 1.557-.531 1.812-1.317l29.973-92.194a1.906 1.906 0 00-1.812-2.495h-23.628c-.843 0-1.586.554-1.827 1.362l-20.363 68.451c-.545 1.827-3.139 1.812-3.661-.022zm323.683-69.766l-33.629.012c-.782 0-1.485.478-1.772 1.206l-36.363 92.123a1.906 1.906 0 001.773 2.606h22.591c.808 0 1.528-.509 1.797-1.271l5.092-14.411a1.905 1.905 0 011.797-1.271h42.088c.82 0 1.548.524 1.807 1.302l4.796 14.35c.26.777.988 1.302 1.807 1.302h24.842a1.906 1.906 0 001.771-2.61l-36.626-92.135a1.903 1.903 0 00-1.771-1.203zm-33.301 59.882l14.161-37.566c.623-1.654 2.967-1.642 3.573.018l13.729 37.566a1.906 1.906 0 01-1.79 2.56h-27.89a1.906 1.906 0 01-1.783-2.578zm-145.151-59.908h-36.15a1.906 1.906 0 00-1.906 1.906v92.194c0 1.053.853 1.906 1.906 1.906h42.071c23.431 0 31.081-3.894 39.354-12.633 5.841-6.133 9.622-19.596 9.622-34.313 0-13.501-3.197-25.533-8.777-33.031-10.044-13.407-24.518-16.029-46.12-16.029zm.498 75.511h-9.75a1.906 1.906 0 01-1.906-1.906v-50.794c0-1.053.853-1.906 1.906-1.906h9.75c16.919 0 27.853 7.594 27.853 27.299 0 19.713-10.935 27.307-27.853 27.307zm68.914 20.495h23.32a1.906 1.906 0 001.906-1.906v-92.188a1.906 1.906 0 00-1.905-1.906l-23.32-.005a1.906 1.906 0 00-1.906 1.906v92.194a1.904 1.904 0 001.905 1.905z" fill="#c2c2c4"/><path d="M228.792 462.751l-.012-92.194c0-1.053.853-1.906 1.906-1.906h-15.481a1.906 1.906 0 00-1.906 1.906l.012 92.194c0 1.052.853 1.906 1.906 1.906h15.481a1.907 1.907 0 01-1.906-1.906zm-213.311 0v-92.328c0-1.053.853-1.906 1.906-1.906H1.906A1.906 1.906 0 000 370.423v92.328c0 1.053.853 1.906 1.906 1.906h15.481a1.906 1.906 0 01-1.906-1.906zm131.164.585l-29.731-92.194a1.904 1.904 0 011.787-2.487l-15.453-.003a1.906 1.906 0 00-1.814 2.491l29.731 92.194a1.906 1.906 0 001.814 1.321h15.481a1.91 1.91 0 01-1.815-1.322zm270.537-1.319l36.363-92.123a1.905 1.905 0 011.772-1.206l18.183-.006c-.012 0-.023-.005-.035-.005l-33.629.012c-.782 0-1.485.478-1.772 1.206l-36.363 92.123a1.906 1.906 0 001.773 2.606h15.481a1.907 1.907 0 01-1.773-2.607zm-144.744.734v-92.194c0-1.053.853-1.906 1.906-1.906h-15.481a1.906 1.906 0 00-1.906 1.906v92.194c0 1.053.853 1.906 1.906 1.906h15.481a1.906 1.906 0 01-1.906-1.906zm105.562 0v-92.194c0-1.04.835-1.883 1.87-1.902l-15.445-.004a1.906 1.906 0 00-1.906 1.906v92.194c0 1.053.853 1.906 1.906 1.906h15.481a1.906 1.906 0 01-1.906-1.906z" fill="#b0b0b5"/><g fill="#66af3f"><path d="M90.772 165.971s37.653-55.556 112.835-61.302V84.513c-83.271 6.689-155.385 77.216-155.385 77.216s40.845 118.067 155.385 128.879v-21.421C119.554 258.61 90.772 165.971 90.772 165.971z"/><path d="M203.607 226.579v19.622c-63.525-11.328-81.16-77.367-81.16-77.367s30.5-33.789 81.16-39.267v21.529c-.037 0-.064-.01-.097-.01-26.587-3.192-47.357 21.646-47.357 21.646s11.64 41.814 47.454 53.847"/></g><path d="M203.607 129.567v-24.895c2.42-.171 4.857-.302 7.347-.379 68.079-2.138 112.745 58.503 112.745 58.503s-48.244 66.999-99.968 66.999c-7.445 0-14.121-1.195-20.125-3.216v-75.484c26.503 3.202 31.836 14.909 47.769 41.473l35.441-29.883s-25.868-33.927-69.479-33.927c-4.739-.004-9.276.332-13.73.809" fill="#72be4f"/><path d="M230.698 162.344c-6.49-6.189-14.337-9.708-27.092-11.249v75.484c6.004 2.021 12.68 3.216 20.125 3.216 2.331 0 4.654-.141 6.967-.4v-67.051zm0-32.486v-24.431a112.253 112.253 0 00-19.744-1.135c-2.49.077-4.927.208-7.347.379v24.895c4.454-.477 8.992-.812 13.731-.809 4.664.001 9.112.408 13.36 1.101zm-22.351 139.843c3.608.326 7.311.508 11.126.508 3.802 0 7.538-.122 11.226-.332v-22.525c-7.072.639-14.154.587-21.2-.273-3.133-.383-5.892 2.049-5.892 5.205v12.187c0 2.704 2.048 4.987 4.74 5.23zm.74-185.54a154.442 154.442 0 0121.611.486V47.34h-21.841a5.251 5.251 0 00-5.251 5.251v26.328c.001 2.99 2.494 5.388 5.481 5.242zm21.611 207.013c-7.715.382-14.942.365-21.511-.097-3.022-.213-5.58 2.211-5.58 5.24v21.341c0 2.9 2.351 5.251 5.251 5.251h21.841v-31.735h-.001z" fill="#66af3f"/></svg>