<svg xmlns="http://www.w3.org/2000/svg" viewBox="0 0 512 512"><path d="M511.686 211.219c-10.56-60.905-265.338-51.36-425.524 16.027l-12.73 5.584C25.085 254.998-3.333 279.624.313 300.776c10.625 61.333 267.711 51.005 426.962-16.636l18.991-8.615c43.643-21.209 68.873-44.298 65.42-64.306z" fill="#0964af"/><path d="M26.615 300.776c-3.646-21.152 24.772-45.779 73.119-67.946l12.73-5.584c79.585-33.479 190.439-54.642 279.424-56.575-95.084-2.188-219.877 20.461-305.726 56.575l-12.73 5.584C25.085 254.998-3.333 279.624.313 300.776c4.81 27.766 63.599 42.343 146.031 40.55-68.406-1.576-115.448-15.838-119.729-40.55z" fill="#004f9c"/><path d="M428.577 253.821v5.189c0 .851.69 1.541 1.541 1.541h2.956a1.03 1.03 0 011.029 1.029v6.831c.026.703-.016 1.459-.13 2.063-.229 1.469-1.609 3.954-5.531 3.954-3.906 0-5.261-2.485-5.505-3.954a13.48 13.48 0 01-.146-2.063v-24.809c0-.885.063-1.838.25-2.557.266-1.323 1.433-3.938 5.37-3.938 4.131 0 5.157 2.745 5.386 3.938.161.776.177 2.089.177 2.089v1.613c0 .769.623 1.392 1.392 1.392h10.456c.962 0 1.742-.78 1.742-1.742v-.039s.057-1.859-.104-3.594c-1.016-10.183-9.36-13.391-18.939-13.391-9.584 0-17.756 3.245-18.944 13.391-.104.937-.271 2.609-.271 3.594v22.829c0 .984.026 1.755.208 3.578.849 9.474 8.719 13.089 17.762 13.376l18.991-8.615c.625-1.386 1.042-2.969 1.219-4.761.146-1.823.161-2.594.198-3.578v-13.304c0-.69-.559-1.249-1.249-1.249h-16.669a1.187 1.187 0 00-1.189 1.187zm-319.919 10.12c-2.266-11.402-22.751-14.767-24.288-21.126-.25-1.089-.193-2.245-.052-2.844.38-1.734 1.542-3.662 4.933-3.662 3.172 0 5.032 1.979 5.032 4.938v2.168c0 .655.531 1.187 1.187 1.187h10.577a1.7 1.7 0 001.7-1.7v-2.123c0-11.792-10.584-13.678-18.225-13.678-1.151 0-2.276.042-3.36.146l-12.73 5.584c-1.391 1.677-2.349 3.75-2.766 6.329-.396 2.437-.459 4.573.109 7.318 2.333 11.089 21.527 14.313 24.319 21.324.521 1.313.354 2.98.099 4.006-.443 1.834-1.662 3.667-5.271 3.667-3.365 0-5.391-1.969-5.391-4.933l-.017-4.141a1.087 1.087 0 00-1.087-1.083h-11.94c-.804 0-1.456.652-1.456 1.456v2.695c0 12.131 9.475 15.782 19.616 15.782 9.761 0 17.777-3.339 19.079-12.423.651-4.678.161-7.741-.068-8.887zm38.478 18.038l-6.811-46.531c-.065-.442-.702-.443-.768-.001l-7.003 46.689a1.136 1.136 0 01-1.125.968h-12.52a.9.9 0 01-.884-1.061l9.498-51.551a2.035 2.035 0 012.001-1.666h20.882c.822 0 1.527.587 1.676 1.396l9.499 51.775a.939.939 0 01-.923 1.108h-12.223a1.317 1.317 0 01-1.299-1.126zm71.9-.644l-.338-45.918c-.002-.296-.431-.334-.484-.043l-8.615 46.612a1.365 1.365 0 01-1.342 1.117h-10.863a2.038 2.038 0 01-2.003-1.667l-8.454-45.794c-.059-.322-.533-.28-.535.047l-.341 46.338a1.084 1.084 0 01-1.084 1.076h-10.992a1.397 1.397 0 01-1.397-1.427l1.112-51.257a1.63 1.63 0 011.63-1.595h18.912c.87 0 1.611.632 1.749 1.491l6.044 37.641c.097.602.962.602 1.059 0l6.063-37.759a1.63 1.63 0 011.61-1.372h19.439c.646 0 1.174.516 1.188 1.162l1.146 51.248a1.828 1.828 0 01-1.827 1.869h-9.895a1.783 1.783 0 01-1.782-1.769zm65.028-8.664c-1.276 8.985-9.24 12.282-18.892 12.282-10.063 0-19.413-3.61-19.413-15.605v-3.012c0-.626.508-1.134 1.134-1.134h11.86c.74 0 1.341.6 1.341 1.341v3.868c0 2.927 2.026 4.87 5.381 4.87 3.589 0 4.792-1.808 5.204-3.61.25-1 .385-2.677-.099-3.99-2.75-6.933-21.751-10.12-24.064-21.095-.599-2.714-.51-4.844-.135-7.235 1.433-8.787 9.193-11.944 18.694-11.944 7.563 0 17.985 1.833 17.985 13.537v2.269c0 .826-.67 1.496-1.496 1.496h-10.435a1.38 1.38 0 01-1.381-1.381v-1.931c0-2.922-1.828-4.881-4.943-4.881-3.344 0-4.506 1.896-4.902 3.631-.125.588-.182 1.729.052 2.813 1.536 6.271 21.783 9.657 24.012 20.918.242 1.131.701 4.152.097 8.793m50.643-1.349c-.958 10.141-8.896 13.428-18.84 13.428-9.933 0-17.876-3.287-18.814-13.428-.062-.542-.135-2.584-.12-3.583V230.91c0-1.151.933-2.084 2.084-2.084h9.674a1.89 1.89 0 011.889 1.889v38.269c-.026.693 0 1.49.135 2.063.261 1.344 1.427 3.938 5.151 3.938 3.766 0 4.896-2.594 5.183-3.938.12-.573.146-1.37.12-2.063V230.49c0-.919.745-1.664 1.664-1.664h10.124c1.026 0 1.858.832 1.858 1.858v37.055c.059.999-.025 3.041-.108 3.583m58.726 11.214h-16.261a1.66 1.66 0 01-1.59-1.18l-12.401-40.929c-.146-.483-.859-.371-.85.133l.688 40.23a1.715 1.715 0 01-1.715 1.745h-9.806a1.7 1.7 0 01-1.699-1.699V230.63c0-.998.809-1.806 1.806-1.806h16.447a2.37 2.37 0 012.276 1.708l11.618 39.949c.093.319.564.248.559-.084l-.658-39.726a1.818 1.818 0 011.817-1.848h10.115c.761 0 1.377.617 1.377 1.377v50.613a1.725 1.725 0 01-1.723 1.723z" fill="#f2f2f2"/></svg>