<svg xmlns="http://www.w3.org/2000/svg" viewBox="0 0 512 512"><path d="M274.03 0H12.561C5.624 0 0 5.624 0 12.561v486.878C0 506.377 5.624 512 12.561 512h486.878c6.937 0 12.561-5.624 12.561-12.561V12.561C512 5.624 506.377 0 499.439 0H274.03z" fill="#f97e19"/><g fill="#fff"><path d="M95.086 156.777v198.447a3.177 3.177 0 003.176 3.177h44.847a3.176 3.176 0 003.176-3.177V200.809a3.176 3.176 0 013.176-3.176h99.553c19.759 0 36.315 17.115 36.023 36.315.57 40.416.064 80.867.207 121.285a3.18 3.18 0 003.18 3.167h44.857a3.176 3.176 0 003.176-3.176l.036-139.343c0-33.507-29.457-62.281-61.989-62.281H98.262a3.176 3.176 0 00-3.176 3.177zm277.943 0v198.447a3.177 3.177 0 003.177 3.177h44.847a3.177 3.177 0 003.177-3.177V156.777a3.176 3.176 0 00-3.177-3.176h-44.847a3.175 3.175 0 00-3.177 3.176z"/><path d="M190.172 237.234v117.99a3.177 3.177 0 003.176 3.177h44.847a3.176 3.176 0 003.176-3.177v-117.99a3.176 3.176 0 00-3.176-3.176h-44.847a3.175 3.175 0 00-3.176 3.176z"/></g><path d="M21.12 499.439V12.561C21.12 5.624 26.744 0 33.681 0h-21.12C5.624 0 0 5.624 0 12.561v486.878C0 506.377 5.624 512 12.561 512h21.12c-6.937 0-12.561-5.623-12.561-12.561z" fill="#ea6d11"/><path d="M116.206 355.224V156.777a3.177 3.177 0 013.176-3.177h-21.12a3.176 3.176 0 00-3.176 3.177v198.447a3.176 3.176 0 003.176 3.176h21.12a3.176 3.176 0 01-3.176-3.176zm189.952.009c-.143-40.418.57-80.869 0-121.285.293-19.2-16.263-36.315-36.023-36.315h-21.12c19.76 0 36.315 17.115 36.023 36.315.57 40.416.064 80.867.207 121.285a3.18 3.18 0 003.18 3.167h21.12c-1.751 0-3.381-1.416-3.387-3.167zm87.991-.009V156.777a3.177 3.177 0 013.177-3.177h-21.12a3.177 3.177 0 00-3.177 3.177v198.447a3.176 3.176 0 003.177 3.176h21.12a3.176 3.176 0 01-3.177-3.176zm-182.857 0v-117.99a3.176 3.176 0 013.177-3.176h-21.12a3.176 3.176 0 00-3.177 3.176v117.99a3.176 3.176 0 003.177 3.176h21.12a3.176 3.176 0 01-3.177-3.176z" fill="#d6d6d8"/></svg>